<?xml version="1.0" encoding="utf-8"?>
<svg xmlns="http://www.w3.org/2000/svg" style="margin: auto; background: none; display: block; shape-rendering: auto;" width="280" height="250" preserveAspectRatio="xMidYMid">
<style type="text/css">
  text {
    text-anchor: middle; font-size: 80px; opacity: 0;
  }
</style>
<g style="transform-origin:140px 125px;transform:scale(1)">
<g transform="translate(140,125)">
  <g transform="translate(0,0)"><g class="path" style="transform: matrix(0.01, 0, 0, 0.01, 0, 0); transform-origin: -84.6px 4.91039px; animation: 1s linear 0s 1 normal forwards running bounce-in-afdecf5a-19d1-463a-8d98-47a05008f2f1;"><path d="M35.60-21.36L11.44-21.60L11.44-20L11.44-20Q11.44-12 14.68-7.52L14.68-7.52L14.68-7.52Q17.92-3.04 23.52-3.04L23.52-3.04L23.52-3.04Q27.12-3.04 29.28-3.72L29.28-3.72L29.28-3.72Q31.44-4.40 34.72-6.64L34.72-6.64L34.72-6.64Q36-6.08 36.16-4.72L36.16-4.72L36.16-4.72Q30.64 1.28 23.28 1.36L23.28 1.36L23.28 1.36Q14.08 1.36 8.56-4.40L8.56-4.40L8.56-4.40Q3.04-10.16 2.96-20L2.96-20L2.96-20Q3.04-30.08 8.76-35.72L8.76-35.72L8.76-35.72Q14.48-41.36 22.88-41.36L22.88-41.36L22.88-41.36Q29.68-41.36 33.24-36.76L33.24-36.76L33.24-36.76Q36.80-32.16 36.80-24.32L36.80-24.32L36.80-24.32Q36.80-22.96 36.72-22.24L36.72-22.24L35.60-21.36zM22.80-37.92L22.80-37.92L22.80-37.92Q19.04-37.92 15.88-34.52L15.88-34.52L15.88-34.52Q12.72-31.12 11.76-24.88L11.76-24.88L29.20-25.84L29.20-25.84Q29.20-32.24 27.80-35.08L27.80-35.08L27.80-35.08Q26.40-37.92 22.80-37.92" fill="#fdfdfd" stroke="none" stroke-width="none" transform="translate(-104.47998046875,24.91039276123047)" style="fill: rgb(253, 253, 253);"></path></g><g class="path" style="transform: matrix(0.01, 0, 0, 0.01, 0, 0); transform-origin: -47.402px 4.99403px; animation: 1s linear 0.132s 1 normal forwards running bounce-in-afdecf5a-19d1-463a-8d98-47a05008f2f1;"><path d="M47.60-12L47.60-12L48.40-3.52L48.40-3.52Q51.04-2.08 55.68-2.08L55.68-2.08L55.68-2.08Q59.20-2.08 61.64-3.60L61.64-3.60L61.64-3.60Q64.08-5.12 64.08-8.16L64.08-8.16L64.08-8.16Q64.08-10.88 61.68-12.92L61.68-12.92L61.68-12.92Q59.28-14.96 53.44-17.68L53.44-17.68L53.44-17.68Q48.40-20 46.04-22.96L46.04-22.96L46.04-22.96Q43.68-25.92 43.68-30.56L43.68-30.56L43.68-30.56Q43.68-36 47.60-38.72L47.60-38.72L47.60-38.72Q51.52-41.44 57.84-41.44L57.84-41.44L57.84-41.44Q64-41.44 69.52-39.20L69.52-39.20L69.52-39.20Q69.52-38.88 69.56-38.32L69.56-38.32L69.56-38.32Q69.60-37.76 69.60-37.44L69.60-37.44L69.60-37.44Q69.60-32.72 68.08-28.24L68.08-28.24L68.08-28.24Q67.28-28.08 66.88-28.08L66.88-28.08L66.88-28.08Q65.68-28.08 64.48-28.56L64.48-28.56L63.20-37.20L63.20-37.20Q60.72-37.92 58.08-37.92L58.08-37.92L58.08-37.92Q54.80-37.92 52.60-36.56L52.60-36.56L52.60-36.56Q50.40-35.20 50.32-32.16L50.32-32.16L50.32-32.16Q50.32-29.44 52.32-27.52L52.32-27.52L52.32-27.52Q54.32-25.60 59.84-22.96L59.84-22.96L59.84-22.96Q66.32-19.84 68.88-17.04L68.88-17.04L68.88-17.04Q71.44-14.24 71.44-10L71.44-10L71.44-10Q71.44-4.56 67.24-1.48L67.24-1.48L67.24-1.48Q63.04 1.60 56.24 1.60L56.24 1.60L56.24 1.60Q47.84 1.76 42.72-1.60L42.72-1.60L42.72-2.96L42.72-2.96Q42.64-8 44.16-12.32L44.16-12.32L44.16-12.32Q44.64-12.40 44.96-12.40L44.96-12.40L44.96-12.40Q46.40-12.40 47.60-12" fill="#fdfdfd" stroke="none" stroke-width="none" transform="translate(-104.47998046875,24.91039276123047)" style="fill: rgb(253, 253, 253);"></path></g><g class="path" style="transform: matrix(0.01, 0, 0, 0.01, 0, 0); transform-origin: -6.71998px -5.12961px; animation: 1s linear 0.264s 1 normal forwards running bounce-in-afdecf5a-19d1-463a-8d98-47a05008f2f1;"><path d="M88.96-59.60L88.96-59.60L88.96-35.60L89.36-35.60L89.36-35.60Q96.08-41.60 102.48-41.60L102.48-41.60L102.48-41.60Q108.80-41.60 111.92-38.28L111.92-38.28L111.92-38.28Q115.04-34.96 115.04-29.12L115.04-29.12L115.04-4L120.80-2.40L120.80-2.40Q121.04-0.88 120.40 0.40L120.40 0.40L120.40 0.40Q113.20 0 111.04 0L111.04 0L111.04 0Q108.64 0 101.28 0.40L101.28 0.40L101.28 0.40Q101.04-1.12 101.44-2.40L101.44-2.40L101.44-2.40Q105.44-3.20 107.04-4L107.04-4L107.04-27.92L107.04-27.92Q107.04-32.48 105-34.28L105-34.28L105-34.28Q102.96-36.08 99.28-36L99.28-36L99.28-36Q96.72-36 93.96-34.72L93.96-34.72L93.96-34.72Q91.20-33.44 89.36-31.36L89.36-31.36L89.36-4L94.72-2.40L94.72-2.40Q94.96-0.88 94.32 0.40L94.32 0.40L94.32 0.40Q87.12 0 85.36 0L85.36 0L85.36 0Q83.04 0 75.60 0.40L75.60 0.40L75.60 0.40Q75.36-1.12 75.76-2.40L75.76-2.40L75.76-2.40Q80.24-3.44 81.36-4L81.36-4L81.36-54.88L74.72-55.52L74.72-55.52Q74.48-57.12 75.12-58.32L75.12-58.32L75.12-58.32Q80.88-59.20 85.92-60.48L85.92-60.48L85.92-60.48Q87.28-60.40 88.96-59.60" fill="#fdfdfd" stroke="none" stroke-width="none" transform="translate(-104.47998046875,24.91039276123047)" style="fill: rgb(253, 253, 253);"></path></g><g class="path" style="transform: matrix(0.01, 0, 0, 0.01, 0, 0); transform-origin: 40.56px 4.9104px; animation: 1s linear 0.396s 1 normal forwards running bounce-in-afdecf5a-19d1-463a-8d98-47a05008f2f1;"><path d="M124.88-20L124.88-20L124.88-20Q124.88-30 130.72-35.84L130.72-35.84L130.72-35.84Q136.56-41.68 145.04-41.60L145.04-41.60L145.04-41.60Q154.32-41.60 159.76-35.44L159.76-35.44L159.76-35.44Q165.20-29.28 165.20-20L165.20-20L165.20-20Q165.20-9.84 159.44-4.08L159.44-4.08L159.44-4.08Q153.68 1.68 145.04 1.60L145.04 1.60L145.04 1.60Q135.52 1.60 130.20-4.56L130.20-4.56L130.20-4.56Q124.88-10.72 124.88-20zM156.56-18.88L156.56-18.88L156.56-18.88Q156.72-26.48 153.84-32.32L153.84-32.32L153.84-32.32Q150.96-38.16 144.88-38.16L144.88-38.16L144.88-38.16Q138.96-38.16 136.20-33L136.20-33L136.20-33Q133.44-27.84 133.52-19.44L133.52-19.44L133.52-19.44Q133.52-15.76 134.20-12.56L134.20-12.56L134.20-12.56Q134.88-9.36 136.32-6.96L136.32-6.96L136.32-6.96Q137.76-4.56 139.96-3.20L139.96-3.20L139.96-3.20Q142.16-1.84 145.20-1.84L145.20-1.84L145.20-1.84Q150.16-1.76 153.36-5.84L153.36-5.84L153.36-5.84Q156.56-9.92 156.56-18.88" fill="#fdfdfd" stroke="none" stroke-width="none" transform="translate(-104.47998046875,24.91039276123047)" style="fill: rgb(253, 253, 253);"></path></g><g class="path" style="transform: matrix(0.01, 0, 0, 0.01, 0, 0); transform-origin: 85.8073px 14.3104px; animation: 1s linear 0.528s 1 normal forwards running bounce-in-afdecf5a-19d1-463a-8d98-47a05008f2f1;"><path d="M182.96-40.16L182.96-40.16L182.88-36.96L183.28-36.56L183.28-36.56Q188.96-41.60 195.28-41.60L195.28-41.60L195.28-41.60Q202.88-41.52 207.36-35.60L207.36-35.60L207.36-35.60Q211.84-29.68 211.92-21.04L211.92-21.04L211.92-21.04Q211.92-10.08 206.52-4.28L206.52-4.28L206.52-4.28Q201.12 1.52 191.44 1.52L191.44 1.52L191.44 1.52Q187.60 1.44 183.28-0.24L183.28-0.24L183.28 16L190.24 17.60L190.24 17.60Q190.48 19.12 189.84 20.40L189.84 20.40L189.84 20.40Q182.64 20 179.28 20L179.28 20L179.28 20Q176.16 20 169.52 20.40L169.52 20.40L169.52 20.40Q169.28 18.88 169.68 17.60L169.68 17.60L169.68 17.60Q173.52 16.80 175.28 16L175.28 16L175.28-35.20L168.72-35.84L168.72-35.84Q168.48-37.44 169.12-38.64L169.12-38.64L169.12-38.64Q172.56-39.04 180.16-40.80L180.16-40.80L180.16-40.80Q181.44-40.72 182.96-40.16zM183.28-32.32L183.28-32.32L183.28-4.72L183.28-4.72Q187.04-2.16 191.28-2.16L191.28-2.16L191.28-2.16Q197.20-2.16 200.32-6.96L200.32-6.96L200.32-6.96Q203.44-11.76 203.44-20.56L203.44-20.56L203.44-20.56Q203.44-28.64 200.64-32.72L200.64-32.72L200.64-32.72Q197.84-36.80 192.88-36.80L192.88-36.80L192.88-36.80Q190.08-36.80 187.28-35.40L187.28-35.40L187.28-35.40Q184.48-34 183.28-32.32" fill="#fdfdfd" stroke="none" stroke-width="none" transform="translate(-104.47998046875,24.91039276123047)" style="fill: rgb(253, 253, 253);"></path></g></g>
</g>
</g>
<style id="bounce-in-afdecf5a-19d1-463a-8d98-47a05008f2f1" data-anikit="">@keyframes bounce-in-afdecf5a-19d1-463a-8d98-47a05008f2f1
{
  0% {
    animation-timing-function: cubic-bezier(0.0383,0.3388,0.0421,0.6652);
    transform: matrix(0.01,0,0,0.01,0,0);
    opacity: 1;
  }
  4.7% {
    animation-timing-function: cubic-bezier(0.3296,0.3336,0.5772,0.6672);
    transform: matrix(0.556,0,0,0.556,0,0);
    opacity: 1;
  }
  8.4% {
    animation-timing-function: cubic-bezier(0.0781,0.1617,0.0874,0.9301);
    transform: matrix(0.979,0,0,0.979,0,0);
    opacity: 1;
  }
  12.4% {
    animation-timing-function: cubic-bezier(0.8341,0.1496,0.8634,0.7673);
    transform: matrix(1.153,0,0,1.153,0,0);
    opacity: 1;
  }
  16.3% {
    animation-timing-function: cubic-bezier(0.3264,0.3332,0.5758,0.6695);
    transform: matrix(1.008,0,0,1.008,0,0);
    opacity: 1;
  }
  21.2% {
    animation-timing-function: cubic-bezier(0.0921,0.1883,0.3277,1);
    transform: matrix(0.704,0,0,0.704,0,0);
    opacity: 1;
  }
  24.5% {
    animation-timing-function: cubic-bezier(0.6905,0.0944,0.8759,0.7624);
    transform: matrix(0.626,0,0,0.626,0,0);
    opacity: 1;
  }
  27.7% {
    animation-timing-function: cubic-bezier(0.3688,0.332,0.624,0.6684);
    transform: matrix(0.704,0,0,0.704,0,0);
    opacity: 1;
  }
  32.6% {
    animation-timing-function: cubic-bezier(0.1368,0.2364,0.2451,0.9049);
    transform: matrix(0.958,0,0,0.958,0,0);
    opacity: 1;
  }
  37.4% {
    animation-timing-function: cubic-bezier(0.5936,0.0846,0.3495,1);
    transform: matrix(1.085,0,0,1.085,0,0);
    opacity: 1;
  }
  49.5% {
    animation-timing-function: cubic-bezier(0.5522,0.0981,0.3807,1);
    transform: matrix(0.802,0,0,0.802,0,0);
    opacity: 1;
  }
  62.4% {
    animation-timing-function: cubic-bezier(0.4497,0.1349,0.4911,1);
    transform: matrix(1.044,0,0,1.044,0,0);
    opacity: 1;
  }
  74.1% {
    animation-timing-function: cubic-bezier(0.429,0,0.5239,1);
    transform: matrix(0.914,0,0,0.914,0,0);
    opacity: 1;
  }
  87% {
    animation-timing-function: cubic-bezier(0.3501,0,0.6422,1);
    transform: matrix(1.013,0,0,1.013,0,0);
    opacity: 1;
  }
  95.8% {
    animation-timing-function: cubic-bezier(0.3653,0,0.6776,1);
    transform: matrix(0.992,0,0,0.992,0,0);
    opacity: 1;
  }
  100% {
    transform: matrix(1,0,0,1,0,0);
    opacity: 1;
  }
}</style></svg>