<?xml version="1.0" encoding="utf-8"?>
<svg xml:space="preserve" viewBox="0 0 100 100" y="0" x="0" xmlns="http://www.w3.org/2000/svg" id="Layer_1" version="1.1" style="height: 100%; width: 100%; background: none; shape-rendering: auto;" width="200px" height="200px"><g class="ldl-scale" style="transform-origin: 50% 50%; transform: rotate(0deg) scale(0.8, 0.8);"><g class="ldl-ani"><g class="ldl-layer"><g class="ldl-ani"><g><g class="ldl-layer"><g class="ldl-ani" style="transform-origin: 50px 50px; transform: scale(0.91); animation: 7.69231s linear -5.12821s infinite normal forwards running breath-2043d6f0-0720-4c54-ad9f-dc4780bc6928;"><path d="M82.7 87.7c-1.3 0-2.6-.5-3.5-1.5L61.5 68.5c-2-2-2-5.1 0-7.1s5.1-2 7.1 0l17.7 17.7c2 2 2 5.1 0 7.1-1.1 1-2.3 1.5-3.6 1.5z" style=""></path></g></g></g></g></g><g class="ldl-layer"><g class="ldl-ani"><g><g class="ldl-layer"><g class="ldl-ani" style="transform-origin: 50px 50px; transform: scale(0.91); animation: 7.69231s linear -6.41026s infinite normal forwards running breath-2043d6f0-0720-4c54-ad9f-dc4780bc6928;"><circle r="27.5" fill="#e0e0e0" cy="43.8" cx="43.8" transform="rotate(-45.001 43.797 43.798)" style="fill: rgb(224, 224, 224);"></circle></g></g><g class="ldl-layer"><g class="ldl-ani" style="transform-origin: 50px 50px; transform: scale(0.91); animation: 7.69231s linear -7.69231s infinite normal forwards running breath-2043d6f0-0720-4c54-ad9f-dc4780bc6928;"><path fill="#666766" d="M43.8 75.3c-8.1 0-16.1-3.1-22.3-9.2-12.3-12.3-12.3-32.3 0-44.5C33.8 9.3 53.8 9.3 66 21.6c12.3 12.3 12.3 32.3 0 44.5-6.1 6.1-14.1 9.2-22.2 9.2zm0-55c-6 0-12 2.3-16.6 6.9-9.2 9.2-9.2 24.1 0 33.2 9.2 9.2 24.1 9.2 33.2 0 4.4-4.4 6.9-10.3 6.9-16.6s-2.4-12.2-6.9-16.6c-4.6-4.6-10.6-6.9-16.6-6.9z" style="fill: rgb(102, 103, 102);"></path></g></g></g></g></g><metadata xmlns:d="https://loading.io/stock/"><d:name>magnify</d:name><d:tags>search,lookup,find,help,guide,documentation,magnify,web application</d:tags><d:license>by</d:license><d:slug>ku1ziz</d:slug></metadata></g></g><style id="breath-2043d6f0-0720-4c54-ad9f-dc4780bc6928" data-anikit="">@keyframes breath-2043d6f0-0720-4c54-ad9f-dc4780bc6928
{
  0% {
    animation-timing-function: cubic-bezier(0.9647,0.2413,-0.0705,0.7911);
    transform: scale(0.9099999999999999);
  }
  51% {
    animation-timing-function: cubic-bezier(0.9226,0.2631,-0.0308,0.7628);
    transform: scale(1.02994);
  }
  100% {
    transform: scale(0.9099999999999999);
  }
}</style><!-- [ldio] generated by https://loading.io/ --></svg>