<?xml version="1.0" encoding="utf-8"?>
<svg xmlns="http://www.w3.org/2000/svg" style="margin: auto; background: none; display: block; shape-rendering: auto;" width="425" height="121" preserveAspectRatio="xMidYMid">
<style type="text/css">
  text {
    text-anchor: middle; font-size: 84px; opacity: 0;
  }
</style>
<g style="transform-origin: 212.5px 60.5px; transform: scale(1.05);">
<g transform="translate(212.5,60.5)">
  <g transform="translate(0,0)"><g class="path" style="transform: scale(0.91); transform-origin: -104.24px 3.17511px; animation: 14.2857s linear -8.38095s infinite normal forwards running breath-998822c9-d327-4d1e-a215-7cf284ac912e;"><path d="M35.20-0.88L35.20-0.88L35.20-0.88Q37.12-0.88 39.20-3.12L39.20-3.12L40.40-2.16L40.40-2.16Q39.84-1.04 37.92-0.16L37.92-0.16L37.92-0.16Q36 0.72 33.68 0.72L33.68 0.72L33.68 0.72Q26.40 0.72 26.40-5.84L26.40-5.84L26.40-5.84Q26.40-8.64 27.84-15.84L27.84-15.84L27.84-15.84Q29.28-23.04 29.28-25.28L29.28-25.28L29.28-25.28Q29.28-28.72 26-28.72L26-28.72L26-28.72Q21.04-28.72 17.68-16L17.68-16L14.80 0L5.20 0L10.48-29.52L10.48-29.52Q8.08-29.28 6.48-27.28L6.48-27.28L5.28-28.24L5.28-28.24Q7.68-31.12 11.32-31.12L11.32-31.12L11.32-31.12Q14.96-31.12 16.96-29.28L16.96-29.28L16.96-29.28Q18.96-27.44 18.96-24.08L18.96-24.08L18.96-23.84L18.96-23.84Q22.08-31.12 28.40-31.12L28.40-31.12L28.40-31.12Q32.88-31.12 35.48-28.68L35.48-28.68L35.48-28.68Q38.08-26.24 38.32-21.84L38.32-21.84L38.32-21.84Q39.84-26.24 42.16-28.68L42.16-28.68L42.16-28.68Q44.48-31.12 48.88-31.12L48.88-31.12L48.88-31.12Q53.28-31.12 55.92-28.44L55.92-28.44L55.92-28.44Q58.56-25.76 58.56-21.04L58.56-21.04L58.56-21.04Q58.56-18.56 57.04-11.48L57.04-11.48L57.04-11.48Q55.52-4.40 55.36-0.88L55.36-0.88L55.36-0.88Q57.28-0.88 59.36-3.12L59.36-3.12L60.56-2.16L60.56-2.16Q60-1.04 58.08-0.16L58.08-0.16L58.08-0.16Q56.16 0.72 53.84 0.72L53.84 0.72L53.84 0.72Q46.56 0.72 46.56-5.84L46.56-5.84L46.56-5.84Q46.56-8.64 48-15.84L48-15.84L48-15.84Q49.44-23.04 49.44-25.28L49.44-25.28L49.44-25.28Q49.44-28.72 46.16-28.72L46.16-28.72L46.16-28.72Q40.40-28.72 36.88-11.60L36.88-11.60L36.88-11.60Q35.36-4.32 35.20-0.88" fill="#f4f3f2" stroke="none" stroke-width="none" transform="translate(-137.11996459960938,18.375110337999136)" style="fill: rgb(244, 243, 242);"></path></g><g class="path" style="transform: scale(0.91); transform-origin: -59.04px 3.17511px; animation: 14.2857s linear -7.33333s infinite normal forwards running breath-998822c9-d327-4d1e-a215-7cf284ac912e;"><path d="M81.60-31.12L81.60-31.12L81.60-31.12Q91.76-31.12 91.76-23.04L91.76-23.04L91.76-23.04Q91.76-18 87-15.40L87-15.40L87-15.40Q82.24-12.80 73.44-12.72L73.44-12.72L73.44-12.72Q73.28-9.84 73.28-8.16L73.28-8.16L73.28-8.16Q73.28-4.56 74.92-2.84L74.92-2.84L74.92-2.84Q76.56-1.12 79.04-1.12L79.04-1.12L79.04-1.12Q81.52-1.12 83.56-2.08L83.56-2.08L83.56-2.08Q85.60-3.04 86.80-4.36L86.80-4.36L86.80-4.36Q88-5.68 88.88-7.12L88.88-7.12L88.88-7.12Q90.48-9.76 90.48-10.48L90.48-10.48L91.92-9.84L91.92-9.84Q91.68-8.56 90.48-6.44L90.48-6.44L90.48-6.44Q89.28-4.32 87.84-2.96L87.84-2.96L87.84-2.96Q86.40-1.60 83.60-0.44L83.60-0.44L83.60-0.44Q80.80 0.72 77.36 0.72L77.36 0.72L77.36 0.72Q70.88 0.72 67.56-2.36L67.56-2.36L67.56-2.36Q64.24-5.44 64.24-10.80L64.24-10.80L64.24-10.80Q64.24-20.32 68.96-25.72L68.96-25.72L68.96-25.72Q73.68-31.12 81.60-31.12zM89.76-23.04L89.76-23.04Q89.76-25.68 88.20-27.40L88.20-27.40L88.20-27.40Q86.64-29.12 83.56-29.12L83.56-29.12L83.56-29.12Q80.48-29.12 77.56-25.44L77.56-25.44L77.56-25.44Q74.64-21.76 73.68-14.56L73.68-14.56L73.68-14.56Q89.76-14.64 89.76-23.04L89.76-23.04" fill="#f4f3f2" stroke="none" stroke-width="none" transform="translate(-137.11996459960938,18.375110337999136)" style="fill: rgb(244, 243, 242);"></path></g><g class="path" style="transform: scale(0.91); transform-origin: -28.48px -2.74489px; animation: 14.2857s linear -6.28571s infinite normal forwards running breath-998822c9-d327-4d1e-a215-7cf284ac912e;"><path d="M96.96-30.40L101.04-30.40L103.20-42.24L103.20-42.24Q109.12-42.24 112-42.72L112-42.72L113.04-42.96L113.04-42.96Q111.92-37.36 110.56-30.40L110.56-30.40L120.48-30.40L120.32-28.96L110.32-28.96L110.32-28.96Q106.32-8.32 106.32-4.08L106.32-4.08L106.32-4.08Q106.32-1.52 109.04-1.52L109.04-1.52L109.04-1.52Q111.76-1.52 114-4.96L114-4.96L114-4.96Q116.24-8.40 117.20-12.40L117.20-12.40L118.64-11.92L118.64-11.92Q115.68 0.72 106.40 0.72L106.40 0.72L106.40 0.72Q102.56 0.72 100-1.40L100-1.40L100-1.40Q97.44-3.52 97.44-7.32L97.44-7.32L97.44-7.32Q97.44-11.12 100.72-28.96L100.72-28.96L96.80-28.96L96.96-30.40" fill="#f4f3f2" stroke="none" stroke-width="none" transform="translate(-137.11996459960938,18.375110337999136)" style="fill: rgb(244, 243, 242);"></path></g><g class="path" style="transform: scale(0.91); transform-origin: -2.71996px -2.74489px; animation: 14.2857s linear -5.2381s infinite normal forwards running breath-998822c9-d327-4d1e-a215-7cf284ac912e;"><path d="M122.72-30.40L126.80-30.40L128.96-42.24L128.96-42.24Q134.88-42.24 137.76-42.72L137.76-42.72L138.80-42.96L138.80-42.96Q137.68-37.36 136.32-30.40L136.32-30.40L146.24-30.40L146.08-28.96L136.08-28.96L136.08-28.96Q132.08-8.32 132.08-4.08L132.08-4.08L132.08-4.08Q132.08-1.52 134.80-1.52L134.80-1.52L134.80-1.52Q137.52-1.52 139.76-4.96L139.76-4.96L139.76-4.96Q142-8.40 142.96-12.40L142.96-12.40L144.40-11.92L144.40-11.92Q141.44 0.72 132.16 0.72L132.16 0.72L132.16 0.72Q128.32 0.72 125.76-1.40L125.76-1.40L125.76-1.40Q123.20-3.52 123.20-7.32L123.20-7.32L123.20-7.32Q123.20-11.12 126.48-28.96L126.48-28.96L122.56-28.96L122.72-30.40" fill="#f4f3f2" stroke="none" stroke-width="none" transform="translate(-137.11996459960938,18.375110337999136)" style="fill: rgb(244, 243, 242);"></path></g><g class="path" style="transform: scale(0.91); transform-origin: 27.76px 3.17511px; animation: 14.2857s linear -4.19048s infinite normal forwards running breath-998822c9-d327-4d1e-a215-7cf284ac912e;"><path d="M175.84 0.72L175.84 0.72L175.84 0.72Q168.80 0.72 168.16-5.44L168.16-5.44L168.16-5.44Q164.64 0.72 159.28 0.72L159.28 0.72L159.28 0.72Q153.92 0.72 150.76-2.52L150.76-2.52L150.76-2.52Q147.60-5.76 147.60-11.60L147.60-11.60L147.60-11.60Q147.60-20.72 152.08-25.92L152.08-25.92L152.08-25.92Q156.56-31.12 163.68-31.12L163.68-31.12L163.68-31.12Q169.52-31.12 171.44-25.60L171.44-25.60L171.44-25.60Q171.84-28 172.32-30.40L172.32-30.40L172.32-30.40Q178.24-30.40 181.12-30.88L181.12-30.88L182.16-31.12L176.64-0.88L176.64-0.88Q179.04-1.12 180.64-3.12L180.64-3.12L181.84-2.16L181.84-2.16Q179.44 0.72 175.84 0.72zM156.64-7.52L156.64-7.52Q156.64-3.92 157.56-2.52L157.56-2.52L157.56-2.52Q158.48-1.12 160.40-1.12L160.40-1.12L160.40-1.12Q162.32-1.12 164.32-3.20L164.32-3.20L164.32-3.20Q166.96-5.92 168.56-10.08L168.56-10.08L168.56-10.08Q168.80-11.12 169.48-15.08L169.48-15.08L169.48-15.08Q170.16-19.04 170.64-21.60L170.64-21.60L170.64-21.60Q170.40-24.64 168.96-26.88L168.96-26.88L168.96-26.88Q167.52-29.12 165.36-29.12L165.36-29.12L165.36-29.12Q161.44-29.12 159.04-22.12L159.04-22.12L159.04-22.12Q156.64-15.12 156.64-7.52L156.64-7.52" fill="#f4f3f2" stroke="none" stroke-width="none" transform="translate(-137.11996459960938,18.375110337999136)" style="fill: rgb(244, 243, 242);"></path></g><g class="path" style="transform: scale(0.91); transform-origin: 65.72px -7.18489px; animation: 14.2857s linear -3.14286s infinite normal forwards running breath-998822c9-d327-4d1e-a215-7cf284ac912e;"><path d="M197.84-15.44L197.84-15.44L194.96 0L185.44 0L194.48-50.24L194.48-50.24Q192.08-50 190.48-48L190.48-48L189.28-48.96L189.28-48.96Q191.68-51.84 195.32-51.84L195.32-51.84L195.32-51.84Q198.96-51.84 200.96-50L200.96-50L200.96-50Q202.96-48.16 202.96-44.80L202.96-44.80L202.96-44.80Q202.96-44.16 202.80-42.72L202.80-42.72L202.80-42.72Q200.96-32.56 198.80-20.80L198.80-20.80L198.80-20.80Q200.80-25.68 204.56-28.40L204.56-28.40L204.56-28.40Q208.32-31.12 212.56-31.12L212.56-31.12L212.56-31.12Q216.80-31.12 218.52-29.44L218.52-29.44L218.52-29.44Q220.24-27.76 220.24-25.24L220.24-25.24L220.24-25.24Q220.24-22.72 218.72-21.12L218.72-21.12L218.72-21.12Q217.20-19.52 214.76-19.52L214.76-19.52L214.76-19.52Q212.32-19.52 211-20.92L211-20.92L211-20.92Q209.68-22.32 209.68-25.08L209.68-25.08L209.68-25.08Q209.68-27.84 211.60-29.28L211.60-29.28L211.60-29.28Q203.92-28.40 199.36-17.92L199.36-17.92L199.36-17.92Q200.48-18.08 201.28-18.08L201.28-18.08L201.28-18.08Q205.52-18.08 207.96-16.40L207.96-16.40L207.96-16.40Q210.40-14.72 211.12-12.28L211.12-12.28L211.12-12.28Q211.84-9.84 212.16-7.40L212.16-7.40L212.16-7.40Q212.48-4.96 213.20-3.28L213.20-3.28L213.20-3.28Q213.92-1.60 215.76-1.60L215.76-1.60L215.76-1.60Q217.60-1.60 218.64-3.12L218.64-3.12L219.84-2.16L219.84-2.16Q219.28-1.04 217.36-0.16L217.36-0.16L217.36-0.16Q215.44 0.72 212.44 0.72L212.44 0.72L212.44 0.72Q209.44 0.72 207.16-0.80L207.16-0.80L207.16-0.80Q204.88-2.32 204-4.60L204-4.60L204-4.60Q203.12-6.88 202.56-9.12L202.56-9.12L202.56-9.12Q201.04-14.88 197.84-15.44" fill="#f4f3f2" stroke="none" stroke-width="none" transform="translate(-137.11996459960938,18.375110337999136)" style="fill: rgb(244, 243, 242);"></path></g><g class="path" style="transform: scale(0.91); transform-origin: 94.92px 3.17511px; animation: 14.2857s linear -2.09524s infinite normal forwards running breath-998822c9-d327-4d1e-a215-7cf284ac912e;"><path d="M238.72-2.16L238.72-2.16Q236.32 0.72 232.72 0.72L232.72 0.72L232.72 0.72Q229.12 0.72 227.08-1.12L227.08-1.12L227.08-1.12Q225.04-2.96 225.04-5.92L225.04-5.92L225.04-5.92Q225.04-6.96 226.32-14.64L226.32-14.64L228.96-28.96L225.60-28.96L225.76-30.40L229.20-30.40L229.20-30.40Q235.12-30.40 237.92-30.88L237.92-30.88L239.04-31.12L233.52-0.88L233.52-0.88Q235.92-1.12 237.52-3.12L237.52-3.12L238.72-2.16" fill="#f4f3f2" stroke="none" stroke-width="none" transform="translate(-137.11996459960938,18.375110337999136)" style="fill: rgb(244, 243, 242);"></path></g><g class="path" style="transform: scale(0.91); transform-origin: 98.68px -24.5449px; animation: 14.2857s linear -1.04762s infinite normal forwards running breath-998822c9-d327-4d1e-a215-7cf284ac912e;"><path d="M231.68-38.80L231.68-38.80L231.68-38.80Q230-40.48 230-42.88L230-42.88L230-42.88Q230-45.28 231.68-47L231.68-47L231.68-47Q233.36-48.72 235.76-48.72L235.76-48.72L235.76-48.72Q238.16-48.72 239.88-47L239.88-47L239.88-47Q241.60-45.28 241.60-42.88L241.60-42.88L241.60-42.88Q241.60-40.48 239.88-38.80L239.88-38.80L239.88-38.80Q238.16-37.12 235.76-37.12L235.76-37.12L235.76-37.12Q233.36-37.12 231.68-38.80" fill="#f4f3f2" stroke="none" stroke-width="none" transform="translate(-137.11996459960938,18.375110337999136)" style="fill: rgb(244, 243, 242);"></path></g><g class="path" style="transform: scale(0.91); transform-origin: 124.36px 3.17511px; animation: 14.2857s linear 0s infinite normal forwards running breath-998822c9-d327-4d1e-a215-7cf284ac912e;"><path d="M274.24-0.88L274.24-0.88L274.24-0.88Q276.16-0.88 278.24-3.12L278.24-3.12L279.44-2.16L279.44-2.16Q278.88-1.04 276.96-0.16L276.96-0.16L276.96-0.16Q275.04 0.72 272.72 0.72L272.72 0.72L272.72 0.72Q265.44 0.72 265.44-5.84L265.44-5.84L265.44-5.84Q265.44-8.64 266.88-15.84L266.88-15.84L266.88-15.84Q268.32-23.04 268.32-25.28L268.32-25.28L268.32-25.28Q268.32-28.72 265.04-28.72L265.04-28.72L265.04-28.72Q262.40-28.72 259.96-25.28L259.96-25.28L259.96-25.28Q257.52-21.84 255.92-15.84L255.92-15.84L253.20-0.88L253.20-0.88Q255.68-1.12 257.28-3.12L257.28-3.12L258.48-2.16L258.48-2.16Q256.08 0.72 252.48 0.72L252.48 0.72L252.48 0.72Q248.88 0.72 246.84-1.12L246.84-1.12L246.84-1.12Q244.80-2.96 244.80-5.92L244.80-5.92L244.80-5.92Q244.80-7.04 246.08-14.72L246.08-14.72L248.72-29.52L248.72-29.52Q246.32-29.28 244.72-27.28L244.72-27.28L243.52-28.24L243.52-28.24Q245.92-31.12 249.56-31.12L249.56-31.12L249.56-31.12Q253.20-31.12 255.20-29.28L255.20-29.28L255.20-29.28Q257.20-27.44 257.20-24.08L257.20-24.08L257.20-23.60L257.20-23.60Q260.48-31.12 267.44-31.12L267.44-31.12L267.44-31.12Q272.16-31.12 274.80-28.44L274.80-28.44L274.80-28.44Q277.44-25.76 277.44-21.04L277.44-21.04L277.44-21.04Q277.44-18.56 275.92-11.48L275.92-11.48L275.92-11.48Q274.40-4.40 274.24-0.88" fill="#f4f3f2" stroke="none" stroke-width="none" transform="translate(-137.11996459960938,18.375110337999136)" style="fill: rgb(244, 243, 242);"></path></g></g>
</g>
</g>
<style id="breath-998822c9-d327-4d1e-a215-7cf284ac912e" data-anikit="">@keyframes breath-998822c9-d327-4d1e-a215-7cf284ac912e
{
  0% {
    animation-timing-function: cubic-bezier(0.9647,0.2413,-0.0705,0.7911);
    transform: scale(0.9099999999999999);
  }
  51% {
    animation-timing-function: cubic-bezier(0.9226,0.2631,-0.0308,0.7628);
    transform: scale(1.02994);
  }
  100% {
    transform: scale(0.9099999999999999);
  }
}</style></svg>